<svg id="svg" xmlns="http://www.w3.org/2000/svg" xmlns:xlink="http://www.w3.org/1999/xlink" width="400" height="299.87730061349697" viewBox="0, 0, 400,299.87730061349697"><g id="svgg"><path id="path0" d="M209.670 13.396 C 199.533 33.341,190.590 44.659,164.215 70.920 C 138.582 96.442,133.035 103.659,128.618 117.229 C 118.980 146.838,136.186 194.360,163.526 213.641 C 167.187 216.222,167.395 215.909,160.123 218.789 C 144.377 225.026,120.798 230.309,98.239 232.654 C 85.184 234.011,79.354 239.871,78.725 252.270 C 78.178 263.050,83.935 275.961,90.895 279.559 C 99.248 283.879,106.319 283.218,114.296 277.372 C 122.420 271.418,127.903 268.111,146.905 257.701 C 162.377 249.224,170.346 244.501,179.577 238.337 L 186.638 233.622 186.311 236.814 C 185.950 240.344,183.954 248.610,181.672 256.032 C 177.516 269.544,178.404 279.048,184.285 283.997 C 195.069 293.072,200.630 295.662,209.325 295.662 C 216.472 295.662,226.175 292.139,230.177 288.091 C 239.514 278.647,240.276 277.132,239.814 268.948 C 239.252 259.002,238.076 256.158,227.717 239.691 L 224.898 235.210 228.891 237.683 C 251.293 251.557,269.836 266.178,273.201 272.621 C 278.760 283.262,287.440 285.245,300.539 278.867 C 325.892 266.521,329.114 239.021,305.606 235.621 C 300.784 234.923,283.016 228.391,262.377 219.728 L 251.624 215.215 258.696 214.887 C 276.025 214.082,284.917 208.178,287.903 195.491 C 288.840 191.515,288.592 179.160,287.486 174.724 L 286.814 172.025 285.204 177.178 C 280.277 192.947,272.028 203.335,259.387 209.693 C 256.564 211.112,250.022 213.497,248.951 213.497 C 248.802 213.497,250.206 212.420,252.070 211.105 C 278.093 192.740,287.389 159.310,276.092 124.715 C 269.010 103.027,268.367 85.044,273.601 55.076 C 274.437 50.291,274.531 50.306,270.969 54.665 C 254.345 75.009,248.901 91.784,250.330 118.265 C 251.439 138.816,248.932 147.382,238.559 158.487 C 235.436 161.831,235.531 162.128,236.836 153.129 C 241.657 119.868,239.877 103.038,228.220 71.656 C 219.339 47.748,216.238 35.003,214.268 14.301 C 213.873 10.154,213.475 6.685,213.382 6.593 C 213.290 6.500,211.619 9.562,209.670 13.396 M160.489 10.675 C 160.475 23.321,154.643 37.465,143.048 52.969 C 133.657 65.525,132.254 69.055,132.305 80.000 C 132.341 87.596,133.263 92.955,135.471 98.405 L 136.068 99.877 136.449 98.650 C 136.658 97.975,137.172 95.946,137.590 94.141 C 139.831 84.472,144.214 77.742,156.483 65.133 C 174.472 46.646,175.894 38.243,164.830 15.828 C 161.211 8.496,160.492 7.643,160.489 10.675 M244.922 13.800 C 229.740 36.497,231.216 62.436,248.857 82.931 C 252.607 87.289,252.716 87.111,250.844 79.689 C 245.539 58.658,244.526 38.282,247.657 15.557 C 248.654 8.318,248.608 8.289,244.922 13.800 " stroke="none" fill="#000000" fill-rule="evenodd"></path></g></svg>