<svg id="svg" xmlns="http://www.w3.org/2000/svg" xmlns:xlink="http://www.w3.org/1999/xlink" width="400" height="299.87730061349697" viewBox="0, 0, 400,299.87730061349697"><g id="svgg"><path id="path0" d="M162.638 5.661 C 161.417 6.882,161.398 7.014,161.556 13.252 C 161.760 21.276,161.766 21.283,167.870 21.521 L 172.270 21.693 172.270 73.848 L 172.270 126.003 169.202 127.118 C 126.083 142.784,102.998 191.716,117.777 236.122 C 135.501 289.380,199.656 311.815,247.117 281.354 C 306.470 243.258,296.701 150.924,230.798 127.112 L 227.730 126.003 227.730 73.799 L 227.730 21.595 231.388 21.595 C 237.988 21.595,238.698 20.633,238.448 12.020 C 238.201 3.499,242.854 4.417,199.923 4.417 L 163.882 4.417 162.638 5.661 " stroke="none" fill="#000000" fill-rule="evenodd"></path></g></svg>