<svg id="svg" xmlns="http://www.w3.org/2000/svg" xmlns:xlink="http://www.w3.org/1999/xlink" width="400" height="299.87730061349697" viewBox="0, 0, 400,299.87730061349697"><g id="svgg"><path id="path0" d="M44.449 7.300 C 43.809 8.539,43.775 14.622,44.177 56.994 C 44.428 83.549,44.640 106.636,44.648 108.299 L 44.663 111.322 39.141 115.736 C 36.104 118.164,33.090 120.718,32.442 121.412 L 31.264 122.673 32.076 188.576 C 32.522 224.822,32.972 256.723,33.075 259.467 L 33.264 264.455 28.779 266.013 C 12.352 271.718,-0.000 281.503,-0.000 288.810 C 0.000 292.628,0.401 293.006,4.446 293.006 L 7.714 293.006 9.486 290.337 C 24.323 267.990,98.712 257.592,219.824 260.935 L 231.305 261.252 228.256 262.636 C 217.784 267.390,208.098 275.461,208.098 279.434 C 208.098 285.499,213.446 286.087,218.925 280.626 C 235.268 264.338,281.870 259.142,338.650 267.278 C 361.986 270.622,372.561 273.399,388.002 280.240 C 395.241 283.446,396.743 283.718,398.707 282.173 C 400.525 280.743,400.653 275.296,398.896 274.147 C 394.532 271.293,379.020 265.418,369.653 263.072 C 365.515 262.036,362.071 261.114,362.001 261.023 C 361.867 260.850,356.267 118.554,356.300 116.147 C 356.313 115.195,355.787 114.216,354.650 113.080 L 352.982 111.411 347.534 111.411 L 342.086 111.411 342.086 105.845 C 342.086 102.784,341.940 96.591,341.763 92.083 L 341.439 83.886 316.210 54.581 C 302.333 38.463,290.119 24.448,289.067 23.436 C 286.739 21.196,284.222 20.929,282.145 22.702 C 280.268 24.305,227.944 82.609,227.296 83.821 C 226.932 84.501,226.748 89.297,226.748 98.127 L 226.748 111.411 224.793 111.411 C 221.413 111.411,220.232 113.001,217.498 121.227 L 215.133 128.344 212.646 128.490 L 210.158 128.637 208.810 124.564 C 204.200 110.626,205.143 111.411,193.010 111.411 C 180.929 111.411,181.471 111.057,179.415 120.291 C 178.730 123.370,178.050 126.397,177.904 127.017 C 177.658 128.061,177.418 128.133,174.669 127.998 L 171.700 127.853 168.818 120.736 C 165.057 111.447,165.015 111.411,158.053 111.411 L 152.726 111.411 152.439 107.362 C 152.280 105.135,151.374 81.902,150.425 55.733 C 148.992 16.197,148.574 7.962,147.958 7.021 C 147.220 5.894,147.172 5.890,135.975 5.890 L 124.734 5.890 123.742 7.151 C 123.196 7.844,121.033 11.378,118.936 15.003 C 113.616 24.197,113.286 24.177,110.723 14.504 C 108.241 5.135,109.592 5.890,95.310 5.890 C 81.205 5.890,82.616 5.049,80.645 14.626 L 79.312 21.104 77.466 21.104 L 75.619 21.104 71.618 14.356 C 66.002 4.885,67.898 5.890,55.642 5.890 L 45.179 5.890 44.449 7.300 " stroke="none" fill="#000000" fill-rule="evenodd"></path></g></svg>