<svg id="svg" xmlns="http://www.w3.org/2000/svg" xmlns:xlink="http://www.w3.org/1999/xlink" width="400" height="299.87730061349697" viewBox="0, 0, 400,299.87730061349697"><g id="svgg"><path id="path0" d="M325.468 6.914 C 323.364 12.348,315.457 30.242,313.272 34.513 L 310.549 39.835 316.438 45.562 C 327.574 56.390,325.884 58.322,311.715 50.964 C 308.643 49.369,306.094 48.126,306.051 48.203 C 305.355 49.452,300.431 55.721,295.869 61.166 C 292.675 64.979,290.061 68.277,290.061 68.495 C 290.061 68.713,294.769 73.655,300.524 79.477 C 312.706 91.802,316.421 96.560,312.781 95.176 C 309.439 93.905,299.238 85.933,290.848 78.034 C 288.206 75.547,285.864 73.703,285.643 73.934 C 285.421 74.166,282.337 78.000,278.787 82.454 C 271.730 91.311,262.428 101.868,261.016 102.624 C 259.618 103.372,259.826 103.672,264.908 108.237 C 284.076 125.456,295.997 138.419,292.648 138.400 C 289.415 138.382,274.094 128.045,257.270 114.529 L 252.209 110.463 247.945 113.211 C 245.600 114.722,238.626 119.583,232.448 124.013 C 226.270 128.443,219.374 133.193,217.125 134.567 L 213.036 137.066 215.107 139.366 C 216.246 140.631,220.823 145.515,225.279 150.219 C 242.453 168.353,258.054 186.052,260.345 190.002 L 261.304 191.655 259.854 190.715 C 254.879 187.492,241.128 175.056,220.211 154.863 L 205.576 140.734 198.371 144.195 C 190.540 147.957,187.340 149.390,171.082 156.409 C 153.659 163.932,146.570 167.905,141.765 172.838 C 139.695 174.964,136.433 180.123,137.159 180.123 C 137.293 180.123,139.009 179.586,140.971 178.931 C 173.779 167.971,221.350 204.964,221.350 241.436 C 221.350 251.497,217.456 262.622,214.579 260.782 C 214.014 260.420,213.780 259.708,213.858 258.590 C 214.970 242.615,213.823 237.664,207.483 231.069 C 189.258 212.114,159.132 224.551,160.081 250.638 L 160.245 255.140 158.775 255.356 C 157.750 255.506,156.850 255.225,155.809 254.431 C 142.047 243.934,122.945 253.831,122.945 271.458 C 122.945 296.470,162.800 297.784,163.843 272.806 L 164.021 268.558 166.305 268.360 C 168.387 268.181,168.784 268.333,170.798 270.084 C 179.163 277.358,205.157 280.085,216.324 274.859 C 222.108 272.152,233.012 263.603,242.632 254.233 C 315.829 182.933,351.034 83.712,328.522 12.159 C 326.567 5.944,326.132 5.198,325.468 6.914 M148.229 181.645 C 134.952 183.684,130.145 194.458,134.781 211.785 C 136.810 219.368,136.851 221.016,135.054 222.813 C 130.989 226.878,126.078 223.021,122.952 213.308 C 115.108 188.937,96.204 195.715,91.984 224.411 C 89.518 241.176,93.966 245.870,103.313 236.369 C 108.801 230.790,114.846 228.234,116.979 230.591 C 119.961 233.886,115.011 239.886,105.260 244.796 C 98.612 248.143,96.986 248.457,84.574 248.782 C 71.953 249.112,71.560 249.215,69.500 252.732 C 64.911 260.569,77.361 275.724,89.522 277.102 C 98.929 278.169,111.357 271.023,121.224 258.875 C 131.287 246.487,138.669 244.034,153.497 248.151 C 154.456 248.418,154.602 248.272,154.610 247.051 C 154.648 240.799,158.454 232.247,163.378 227.348 C 176.371 214.423,195.153 214.676,210.727 227.988 C 215.027 231.663,214.999 231.723,212.180 224.785 C 200.415 195.839,173.598 177.749,148.229 181.645 M107.307 275.566 C 103.435 276.946,101.189 280.632,101.735 284.706 C 103.210 295.705,118.473 295.976,120.447 285.038 C 121.706 278.063,114.624 272.957,107.307 275.566 M68.151 277.378 C 63.168 280.268,63.019 288.471,67.895 291.484 C 73.337 294.847,80.267 290.823,80.174 284.354 C 80.081 277.899,73.669 274.178,68.151 277.378 " stroke="none" fill="#000000" fill-rule="evenodd"></path></g></svg>