<svg id="svg" xmlns="http://www.w3.org/2000/svg" xmlns:xlink="http://www.w3.org/1999/xlink" width="400" height="299.87730061349697" viewBox="0, 0, 400,299.87730061349697"><g id="svgg"><path id="path0" d="M268.770 7.410 C 263.540 51.525,247.349 79.219,220.988 89.141 C 219.285 89.782,217.786 90.307,217.658 90.307 C 217.529 90.307,217.423 80.421,217.423 68.338 L 217.423 46.369 220.520 44.123 C 233.676 34.582,218.517 24.727,192.147 25.677 C 174.128 26.326,164.169 31.753,167.181 39.281 C 167.901 41.081,172.292 45.644,173.305 45.644 C 173.555 45.644,173.742 55.431,173.742 68.485 L 173.742 91.325 170.675 89.259 C 144.133 71.384,131.556 48.979,126.666 10.866 C 126.134 6.719,125.617 3.245,125.518 3.146 C 125.197 2.825,116.686 10.520,112.388 15.017 C 104.922 22.828,96.520 34.154,92.552 41.759 L 91.122 44.499 94.395 52.680 C 96.196 57.180,97.669 60.966,97.669 61.093 C 97.669 61.220,94.429 61.385,90.468 61.459 L 83.268 61.595 81.601 66.503 C 62.694 122.157,77.224 189.451,117.285 231.779 C 122.321 237.100,122.454 237.179,122.874 235.079 C 125.010 224.399,134.616 206.444,142.309 198.751 C 149.960 191.100,166.189 182.577,173.108 182.577 C 173.618 182.577,173.742 187.272,173.742 206.555 L 173.742 230.532 170.322 230.819 C 158.565 231.805,158.245 237.570,169.368 247.993 L 174.194 252.515 174.700 255.706 C 175.367 259.899,175.351 266.764,174.664 271.681 L 174.112 275.632 170.123 277.700 C 158.252 283.856,158.529 290.167,170.926 295.968 C 183.767 301.977,214.654 300.855,224.432 294.023 C 233.001 288.037,230.496 281.334,218.099 277.078 C 216.242 276.440,215.658 258.458,217.308 252.738 C 217.506 252.051,219.325 250.047,221.350 248.285 C 232.960 238.180,232.864 232.587,221.045 230.601 L 217.423 229.993 217.423 205.317 L 217.423 180.641 221.718 182.156 C 241.814 189.244,256.032 205.469,265.071 231.629 C 266.327 235.265,267.578 238.313,267.851 238.404 C 270.047 239.136,291.337 215.060,300.055 201.985 C 303.962 196.126,303.912 197.053,300.642 191.112 L 297.970 186.258 304.194 185.276 L 310.418 184.294 312.698 179.141 C 333.291 132.582,329.858 82.098,303.184 39.226 L 300.259 34.526 293.915 33.628 C 286.302 32.550,286.802 33.223,287.891 25.517 L 288.780 19.225 286.357 16.361 C 282.896 12.270,270.739 0.000,270.147 0.000 C 269.871 0.000,269.257 3.306,268.770 7.410 " stroke="none" fill="#000000" fill-rule="evenodd"></path></g></svg>