<svg id="svg" xmlns="http://www.w3.org/2000/svg" xmlns:xlink="http://www.w3.org/1999/xlink" width="400" height="299.87730061349697" viewBox="0, 0, 400,299.87730061349697"><g id="svgg"><path id="path0" d="M225.948 7.126 C 229.055 15.224,241.031 25.894,248.062 26.829 C 249.972 27.083,251.413 27.817,254.933 30.329 C 260.924 34.605,260.877 34.532,257.423 34.197 C 249.130 33.392,228.427 38.519,232.946 40.258 C 237.510 42.015,264.195 43.355,269.769 42.108 C 271.169 41.794,271.818 42.139,276.558 45.707 C 282.576 50.238,282.610 50.313,278.096 49.061 C 270.843 47.050,255.920 46.706,254.117 48.508 C 253.741 48.884,265.491 54.424,273.674 57.729 C 279.065 59.907,284.624 61.322,289.219 61.686 C 293.524 62.027,293.707 62.178,299.098 69.816 C 301.681 73.476,301.673 73.655,299.002 71.969 C 292.933 68.138,275.360 62.145,274.046 63.459 C 273.802 63.703,285.321 73.889,290.882 78.349 C 295.304 81.895,301.532 85.643,306.439 87.713 C 311.238 89.737,310.297 88.632,313.092 95.531 C 316.700 104.439,316.734 104.330,311.838 99.575 C 306.041 93.944,288.698 82.911,289.687 85.483 C 290.202 86.822,304.015 106.876,306.641 110.097 C 310.416 114.726,314.780 118.559,318.074 120.139 L 320.853 121.472 321.630 127.607 C 322.859 137.312,323.086 141.543,322.262 139.381 C 319.283 131.570,314.482 125.084,305.860 117.224 C 301.138 112.919,301.228 112.830,303.182 119.877 C 308.438 138.835,312.020 146.642,319.582 155.629 L 322.228 158.773 321.877 161.873 C 321.683 163.579,321.032 167.554,320.430 170.708 L 319.336 176.442 318.423 171.844 C 317.012 164.740,314.924 160.258,308.637 150.835 C 303.692 143.426,303.961 142.871,304.788 158.773 C 305.720 176.679,307.543 184.338,312.372 190.629 L 314.221 193.036 312.609 196.764 C 310.678 201.227,306.326 210.061,306.058 210.061 C 305.953 210.061,305.877 206.583,305.889 202.331 C 305.914 193.538,305.449 190.961,302.239 182.086 C 299.757 175.225,299.598 175.013,299.169 178.000 C 298.982 179.302,297.752 184.896,296.435 190.429 C 292.014 209.018,291.780 216.119,295.356 223.114 L 296.384 225.123 291.451 230.872 C 285.899 237.342,285.939 237.318,286.962 233.619 C 287.875 230.321,288.323 216.708,287.738 210.061 L 287.327 205.399 285.560 208.834 C 284.587 210.724,282.306 214.810,280.490 217.914 C 272.829 231.012,270.920 236.397,270.920 244.910 L 270.920 250.200 265.644 253.622 C 262.742 255.505,259.831 257.325,259.174 257.667 L 257.981 258.290 259.072 256.630 C 263.273 250.236,268.102 234.570,266.913 231.194 C 266.641 230.423,246.194 250.830,244.292 253.769 C 242.187 257.023,240.491 261.805,240.491 264.484 L 240.491 266.423 237.423 267.426 C 233.810 268.608,227.213 270.429,226.549 270.429 C 226.293 270.429,227.860 268.607,230.031 266.380 C 234.400 261.899,238.002 256.677,239.833 252.171 C 241.296 248.572,241.208 248.454,238.200 249.979 C 236.886 250.644,233.055 252.230,229.685 253.503 C 216.264 258.573,210.248 263.487,208.109 271.126 L 207.480 273.374 200.000 273.374 L 192.520 273.374 191.891 271.126 C 189.752 263.487,183.736 258.573,170.315 253.503 C 166.945 252.230,163.114 250.644,161.800 249.979 C 158.792 248.454,158.704 248.572,160.167 252.171 C 161.998 256.677,165.600 261.899,169.969 266.380 C 172.140 268.607,173.707 270.429,173.451 270.429 C 172.793 270.429,166.204 268.612,162.643 267.448 L 159.642 266.467 159.377 263.541 C 159.051 259.951,156.920 255.227,153.878 251.356 C 150.318 246.824,133.006 230.411,133.006 231.568 C 133.006 238.472,136.721 250.224,140.929 256.630 L 142.019 258.290 140.826 257.667 C 140.169 257.325,137.258 255.505,134.356 253.622 L 129.080 250.200 129.080 245.179 C 129.080 236.621,126.995 230.617,119.788 218.419 C 117.949 215.307,115.596 211.104,114.559 209.080 L 112.673 205.399 112.262 210.061 C 111.677 216.708,112.125 230.321,113.038 233.619 C 114.061 237.318,114.101 237.342,108.549 230.872 L 103.616 225.123 104.644 223.114 C 108.220 216.119,107.986 209.018,103.565 190.429 C 102.248 184.896,101.018 179.302,100.831 178.000 C 100.399 174.990,100.257 175.187,97.549 182.577 C 94.550 190.762,94.048 193.676,94.105 202.577 C 94.132 206.693,94.063 210.061,93.952 210.061 C 93.675 210.061,89.356 201.307,87.391 196.764 L 85.779 193.036 87.628 190.629 C 92.457 184.338,94.280 176.679,95.212 158.773 C 96.039 142.871,96.308 143.426,91.363 150.835 C 85.076 160.258,82.988 164.740,81.577 171.844 L 80.664 176.442 79.570 170.708 C 78.968 167.554,78.314 163.579,78.117 161.873 L 77.758 158.773 80.047 156.074 C 85.889 149.184,90.719 140.276,93.488 131.288 C 96.136 122.692,98.512 113.865,98.177 113.865 C 97.644 113.865,90.615 120.364,87.825 123.436 C 83.152 128.582,79.890 133.738,77.738 139.381 C 76.914 141.543,77.141 137.312,78.370 127.607 L 79.147 121.472 81.926 120.139 C 85.220 118.559,89.584 114.726,93.359 110.097 C 95.985 106.876,109.798 86.822,110.313 85.483 C 111.303 82.908,93.935 93.960,88.221 99.541 C 85.859 101.848,83.926 103.604,83.926 103.444 C 83.926 103.089,86.863 95.450,88.352 91.933 C 89.373 89.523,89.604 89.319,92.691 88.102 C 96.517 86.593,102.689 83.117,106.503 80.324 C 111.485 76.675,126.311 63.816,125.951 63.456 C 124.640 62.145,107.060 68.142,100.998 71.969 C 98.327 73.655,98.319 73.476,100.902 69.816 C 106.293 62.178,106.476 62.027,110.781 61.686 C 115.376 61.322,120.935 59.907,126.326 57.729 C 134.509 54.424,146.259 48.884,145.883 48.508 C 144.080 46.706,129.157 47.050,121.904 49.061 C 117.409 50.308,117.434 50.242,123.204 45.681 C 128.772 41.279,128.303 41.450,132.025 42.468 C 137.521 43.973,143.156 43.927,154.847 42.280 C 160.785 41.443,166.417 40.697,167.362 40.622 L 169.080 40.485 166.904 39.328 C 160.431 35.885,153.430 34.299,144.663 34.288 L 138.407 34.281 142.946 30.949 C 147.389 27.686,147.560 27.611,151.061 27.369 C 158.053 26.886,165.502 21.299,172.002 11.660 C 175.595 6.332,175.767 6.443,167.290 8.609 C 154.947 11.763,149.078 15.433,147.612 20.914 C 147.275 22.173,146.557 23.509,146.015 23.883 C 143.724 25.466,135.905 30.429,135.702 30.429 C 135.581 30.429,136.353 29.081,137.418 27.434 C 139.590 24.072,140.997 20.619,142.377 15.259 C 144.049 8.762,144.057 8.768,138.282 12.711 C 123.620 22.722,117.853 31.269,120.200 39.509 L 120.759 41.472 118.171 43.678 C 116.747 44.891,113.882 47.514,111.803 49.507 L 108.022 53.131 108.939 50.717 C 110.711 46.056,111.411 41.089,111.411 33.190 C 111.411 23.511,111.397 23.479,108.603 26.625 C 95.518 41.358,92.313 51.335,96.591 64.009 L 97.475 66.626 95.987 68.773 C 95.168 69.954,93.279 72.920,91.789 75.363 L 89.080 79.806 89.080 72.418 C 89.080 66.927,88.844 64.023,88.162 61.104 C 87.146 56.759,84.512 48.575,83.923 47.932 C 83.542 47.517,78.279 62.827,76.780 68.712 C 74.635 77.131,76.066 85.615,80.850 92.845 L 82.075 94.695 79.734 101.775 L 77.394 108.855 75.774 104.028 C 73.763 98.032,72.051 94.614,67.314 87.129 C 62.872 80.111,63.255 79.538,62.317 94.584 C 61.106 113.999,63.541 121.464,72.852 126.872 C 73.626 127.322,73.653 127.848,73.170 133.007 C 72.879 136.111,72.641 140.187,72.640 142.064 L 72.638 145.478 69.571 140.488 C 64.209 131.766,59.584 126.513,52.803 121.443 L 50.883 120.007 51.143 121.230 C 51.286 121.903,52.333 126.871,53.469 132.270 C 57.414 151.015,61.172 157.688,70.552 162.605 C 73.459 164.129,74.110 164.686,74.110 165.646 C 74.110 166.702,75.983 176.478,76.800 179.683 C 77.063 180.716,76.426 180.275,73.485 177.391 C 71.466 175.411,67.240 172.132,64.002 170.033 C 60.788 167.950,56.181 164.960,53.762 163.389 C 51.344 161.818,49.296 160.602,49.210 160.688 C 48.833 161.065,56.954 179.293,59.126 182.942 C 64.854 192.569,72.928 198.708,81.563 200.002 L 83.823 200.341 86.501 205.827 C 87.974 208.844,90.082 212.797,91.184 214.612 L 93.189 217.911 90.889 216.150 C 87.879 213.845,81.034 210.565,74.601 208.346 C 67.212 205.797,58.405 203.226,58.405 203.619 C 58.405 204.452,71.418 219.541,75.177 223.067 C 82.915 230.326,88.229 232.666,97.762 233.015 L 103.991 233.243 112.025 241.244 C 119.964 249.150,120.026 249.228,117.231 247.817 C 111.195 244.771,101.232 242.735,89.816 242.216 C 86.442 242.063,82.301 241.827,80.613 241.691 C 76.364 241.350,76.571 241.620,85.031 247.457 C 105.268 261.420,118.554 264.609,130.580 258.391 C 131.907 257.704,132.116 257.774,136.041 260.210 C 138.286 261.603,142.722 264.004,145.900 265.545 L 151.677 268.347 143.446 268.370 C 138.841 268.383,132.693 268.734,129.492 269.167 C 123.481 269.980,107.764 272.731,106.503 273.191 C 105.492 273.560,122.081 278.497,129.387 280.002 C 142.739 282.751,153.327 280.980,161.686 274.600 L 164.029 272.811 169.008 274.049 C 171.747 274.730,175.498 275.560,177.343 275.895 L 180.698 276.504 177.098 277.551 C 171.335 279.226,163.504 282.766,153.549 288.196 L 144.281 293.252 147.110 293.412 C 165.908 294.481,184.059 289.319,193.361 280.258 L 195.894 277.791 200.261 277.791 C 204.007 277.791,204.697 277.920,205.114 278.699 C 209.634 287.145,233.555 294.511,252.890 293.412 L 255.719 293.252 246.451 288.196 C 236.468 282.751,228.664 279.226,222.851 277.536 L 219.198 276.475 221.378 276.137 C 222.577 275.951,226.353 275.128,229.768 274.308 L 235.978 272.817 238.318 274.603 C 246.672 280.980,257.263 282.750,270.613 280.002 C 277.919 278.497,294.508 273.560,293.497 273.191 C 292.236 272.731,276.519 269.980,270.508 269.167 C 267.307 268.734,261.159 268.383,256.554 268.370 L 248.323 268.347 254.100 265.545 C 257.278 264.004,261.714 261.603,263.959 260.210 C 267.884 257.774,268.093 257.704,269.420 258.391 C 281.446 264.609,294.732 261.420,314.969 247.457 C 323.429 241.620,323.636 241.350,319.387 241.691 C 317.699 241.827,313.558 242.063,310.184 242.216 C 298.735 242.737,288.805 244.770,282.723 247.841 C 279.868 249.282,279.904 249.236,287.937 241.267 L 296.026 233.243 302.246 233.015 C 311.770 232.666,317.087 230.324,324.823 223.067 C 328.582 219.541,341.595 204.452,341.595 203.619 C 341.595 203.226,332.788 205.797,325.399 208.346 C 318.973 210.563,312.122 213.845,309.121 216.143 L 306.831 217.896 308.539 215.083 C 309.479 213.536,311.590 209.585,313.232 206.303 L 316.216 200.335 318.457 199.999 C 327.168 198.693,335.011 192.688,340.890 182.822 C 343.205 178.938,351.186 161.083,350.786 160.684 C 350.703 160.600,348.656 161.818,346.238 163.389 C 343.819 164.960,339.264 167.915,336.115 169.956 C 332.967 171.996,328.684 175.284,326.598 177.262 C 324.270 179.471,322.932 180.461,323.131 179.827 C 323.734 177.909,325.890 166.830,325.890 165.646 C 325.890 164.686,326.541 164.129,329.448 162.605 C 338.828 157.688,342.586 151.015,346.531 132.270 C 347.667 126.871,348.711 121.920,348.850 121.267 C 349.854 116.563,336.398 130.664,330.230 140.780 L 327.362 145.484 327.360 142.067 C 327.359 140.188,327.121 136.111,326.830 133.007 C 326.347 127.848,326.374 127.322,327.148 126.872 C 336.459 121.464,338.894 113.999,337.683 94.584 C 336.757 79.743,337.050 80.311,333.312 86.081 C 328.802 93.043,326.166 98.233,324.275 103.875 L 322.606 108.855 320.266 101.775 L 317.925 94.695 319.150 92.845 C 323.934 85.615,325.365 77.131,323.220 68.712 C 321.703 62.756,316.456 47.519,316.065 47.932 C 315.474 48.556,312.867 56.672,311.835 61.104 C 311.154 64.026,310.920 66.945,310.920 72.514 L 310.920 79.998 309.939 78.243 C 309.399 77.277,307.520 74.241,305.764 71.495 L 302.572 66.503 303.454 63.850 C 306.564 54.497,305.119 45.075,299.252 36.466 C 295.926 31.585,289.371 24.104,288.965 24.725 C 287.485 26.985,288.934 45.120,291.035 50.651 L 291.927 52.998 288.172 49.652 C 286.107 47.812,283.178 45.315,281.663 44.104 L 278.909 41.902 279.823 40.774 C 283.107 36.718,278.985 26.374,271.301 19.393 C 268.055 16.443,259.215 10.307,258.213 10.307 C 256.396 10.307,261.169 25.743,264.549 30.795 C 265.569 32.319,265.417 32.263,260.947 29.454 C 258.381 27.840,255.710 26.260,255.012 25.942 C 254.050 25.504,253.740 24.997,253.732 23.848 C 253.689 17.905,246.930 12.510,234.697 8.654 C 227.074 6.251,225.507 5.978,225.948 7.126 " stroke="none" fill="#000000" fill-rule="evenodd"></path></g></svg>