<svg id="svg" xmlns="http://www.w3.org/2000/svg" xmlns:xlink="http://www.w3.org/1999/xlink" width="400" height="299.87730061349697" viewBox="0, 0, 400,299.87730061349697"><g id="svgg"><path id="path0" d="M188.466 8.235 L 188.466 16.470 185.153 17.325 C 146.420 27.329,132.605 76.881,160.189 106.866 L 162.790 109.693 138.696 150.461 C 125.444 172.883,114.257 191.745,113.836 192.378 C 113.233 193.283,112.179 193.707,108.876 194.376 C 106.568 194.843,103.211 195.957,101.415 196.851 L 98.149 198.476 94.390 195.863 C 90.879 193.422,90.588 193.308,89.983 194.135 C 88.821 195.724,78.528 213.828,78.528 214.282 C 78.528 214.525,80.405 216.004,82.699 217.569 C 86.736 220.322,86.871 220.476,86.871 222.330 C 86.871 224.808,87.753 228.889,88.834 231.409 L 89.687 233.399 84.314 242.449 L 78.942 251.498 76.264 274.829 C 74.791 287.661,73.648 298.595,73.725 299.127 C 74.084 301.610,101.341 268.311,107.239 258.185 C 113.687 247.114,112.406 248.468,117.040 247.824 C 121.439 247.212,124.906 245.966,127.976 243.895 C 130.616 242.113,130.306 242.103,136.032 244.150 C 173.332 257.483,226.177 257.483,263.477 244.150 C 269.203 242.103,268.893 242.113,271.533 243.895 C 274.603 245.966,278.070 247.212,282.469 247.824 C 287.103 248.468,285.822 247.114,292.270 258.185 C 298.168 268.311,325.425 301.610,325.784 299.127 C 325.861 298.595,324.718 287.661,323.245 274.829 L 320.567 251.498 315.195 242.449 L 309.823 233.399 310.676 231.409 C 311.759 228.882,312.638 224.806,312.638 222.310 C 312.638 220.426,312.749 220.301,316.810 217.598 C 319.104 216.071,320.981 214.579,320.980 214.282 C 320.978 213.727,309.968 194.438,309.232 193.699 C 309.007 193.473,307.143 194.456,305.091 195.882 L 301.360 198.476 298.094 196.851 C 296.298 195.957,292.941 194.843,290.634 194.376 C 287.326 193.707,286.277 193.283,285.673 192.376 C 285.252 191.742,274.064 172.880,260.811 150.459 L 236.715 109.693 239.158 107.006 C 266.667 76.757,253.015 27.400,214.356 17.332 L 211.043 16.470 211.043 8.235 L 211.043 0.000 199.755 0.000 L 188.466 0.000 188.466 8.235 M209.104 39.915 C 231.316 47.401,238.120 74.864,221.843 91.335 C 202.285 111.128,168.849 97.679,168.648 69.939 C 168.495 48.715,189.332 33.251,209.104 39.915 M189.614 122.945 C 194.706 123.919,205.098 123.904,209.888 122.914 C 211.929 122.493,213.666 122.217,213.746 122.301 C 213.827 122.385,224.538 140.896,237.548 163.436 C 250.559 185.975,261.541 204.992,261.953 205.694 C 262.649 206.880,262.607 207.209,261.364 210.316 C 260.628 212.155,259.797 215.046,259.516 216.739 L 259.006 219.819 254.043 221.565 C 247.625 223.822,238.739 226.005,230.018 227.467 C 201.562 232.235,169.420 229.991,145.466 221.565 L 140.504 219.819 139.993 216.739 C 139.713 215.046,138.892 212.183,138.170 210.378 C 137.448 208.574,136.929 206.919,137.018 206.702 C 137.128 206.429,185.717 122.208,185.763 122.209 C 185.765 122.209,187.498 122.540,189.614 122.945 " stroke="none" fill="#000000" fill-rule="evenodd"></path></g></svg>