<svg id="svg" xmlns="http://www.w3.org/2000/svg" xmlns:xlink="http://www.w3.org/1999/xlink" width="400" height="299.87730061349697" viewBox="0, 0, 400,299.87730061349697"><g id="svgg"><path id="path0" d="M52.290 6.348 C 51.862 7.041,52.799 10.697,54.481 14.898 C 56.226 19.254,56.103 19.786,52.839 22.032 C 49.437 24.373,45.563 28.959,43.229 33.409 C 38.828 41.802,37.326 43.544,29.154 49.734 C 12.457 62.381,8.345 72.895,16.168 82.945 C 17.414 84.546,25.276 84.701,30.307 83.225 L 33.374 82.325 33.374 80.143 C 33.374 76.555,35.029 75.313,40.254 74.977 C 45.328 74.650,48.321 73.558,53.995 69.961 L 58.288 67.239 62.920 67.239 C 68.238 67.239,71.414 66.436,74.552 64.295 C 78.007 61.939,79.697 62.386,83.773 66.735 C 87.019 70.199,87.729 72.456,90.049 86.701 C 90.566 89.872,91.708 93.490,93.931 99.001 C 100.566 115.445,101.730 121.905,99.635 130.644 C 96.955 141.826,100.986 154.279,109.458 160.990 C 111.763 162.815,112.759 165.285,114.598 173.742 C 116.640 183.128,117.983 186.878,123.224 197.824 C 129.549 211.035,130.772 214.778,132.042 224.804 C 132.856 231.235,133.401 233.708,134.788 237.272 C 141.149 253.619,139.335 267.691,129.645 277.169 C 121.592 285.045,122.084 287.607,131.648 287.607 C 137.495 287.607,137.500 287.606,138.971 286.135 C 139.781 285.325,140.824 284.663,141.289 284.663 C 143.525 284.663,143.998 281.586,142.143 279.108 C 139.813 275.997,141.112 270.301,144.574 268.448 C 148.412 266.394,149.078 263.163,147.058 256.406 C 144.988 249.484,144.656 246.110,144.989 235.413 C 145.158 229.973,145.113 224.748,144.890 223.804 C 144.636 222.732,144.712 220.979,145.091 219.141 C 147.450 207.733,146.926 187.126,144.010 176.596 C 142.436 170.911,145.428 167.688,150.839 169.240 C 189.171 180.234,222.480 177.012,262.098 158.478 C 269.774 154.887,270.554 154.728,273.351 156.172 L 275.536 157.301 275.420 163.190 C 275.232 172.783,276.469 177.851,283.206 195.092 C 291.602 216.581,291.915 219.039,289.544 244.948 C 288.679 254.401,286.615 259.875,281.962 265.054 C 280.396 266.796,278.679 268.950,278.145 269.842 C 277.610 270.733,276.016 272.203,274.601 273.108 C 269.457 276.398,262.797 286.361,265.153 287.240 C 266.150 287.612,280.035 286.282,281.099 285.713 C 282.799 284.803,283.355 282.575,282.993 278.119 C 282.482 271.821,285.173 269.054,291.874 268.984 C 296.164 268.939,297.005 267.818,297.453 261.554 C 297.905 255.232,299.135 249.971,302.094 241.718 C 307.057 227.870,306.854 229.021,306.772 215.215 C 306.705 203.988,307.294 188.631,308.009 183.002 L 308.297 180.729 309.873 181.213 C 311.191 181.617,311.791 182.362,313.531 185.762 C 315.924 190.433,319.565 195.990,326.959 206.250 C 339.820 224.096,343.460 235.075,342.949 254.479 C 342.582 268.388,341.752 270.758,334.818 277.687 C 330.406 282.096,324.908 290.311,324.908 292.494 C 324.908 293.817,341.383 292.369,342.953 290.909 C 344.830 289.164,345.307 286.630,344.290 283.801 C 342.546 278.951,344.737 275.350,350.624 273.391 C 354.768 272.012,354.657 272.592,354.388 253.742 C 354.064 231.044,354.085 226.205,354.545 217.669 C 355.033 208.628,354.673 206.461,352.325 204.326 C 349.177 201.465,340.140 180.961,337.432 170.536 C 335.329 162.442,335.908 158.197,340.797 145.858 C 344.282 137.063,345.413 133.282,346.129 128.019 C 346.805 123.059,346.653 123.186,349.474 125.229 C 366.687 137.698,365.793 162.701,347.580 178.227 C 344.491 180.860,343.540 181.956,343.654 182.752 C 343.971 184.978,350.161 183.977,354.991 180.919 C 356.396 180.029,360.076 177.995,363.168 176.399 C 376.216 169.664,384.230 157.107,386.243 140.243 C 389.549 112.558,385.642 105.962,360.931 97.509 C 352.581 94.652,347.517 92.289,335.329 85.558 C 304.486 68.525,291.370 68.014,233.374 81.587 L 216.196 85.607 207.607 85.590 C 195.653 85.565,192.621 84.663,179.877 77.333 C 174.363 74.161,171.570 73.228,164.305 72.130 C 151.971 70.267,148.235 68.279,138.660 58.483 C 112.161 31.374,95.449 21.018,74.356 18.640 C 67.408 17.857,65.497 16.859,59.097 10.675 C 54.450 6.185,52.971 5.245,52.290 6.348 " stroke="none" fill="#000000" fill-rule="evenodd"></path></g></svg>