<svg id="svg" xmlns="http://www.w3.org/2000/svg" xmlns:xlink="http://www.w3.org/1999/xlink" width="400" height="299.87730061349697" viewBox="0, 0, 400,299.87730061349697"><g id="svgg"><path id="path0" d="M184.828 12.393 C 181.774 72.736,144.465 98.914,77.301 87.840 C 72.442 87.039,67.708 86.165,66.781 85.899 C 64.485 85.240,64.479 85.276,66.001 90.166 C 91.238 171.230,199.445 250.220,258.243 230.500 L 261.585 229.379 264.412 230.895 C 268.597 233.138,271.207 235.047,276.356 239.632 C 290.296 252.043,314.187 278.535,316.830 284.511 C 320.230 292.197,326.216 295.152,331.150 291.578 C 337.649 286.870,335.941 277.312,327.853 273.124 C 324.011 271.135,305.526 251.952,296.643 240.736 C 287.976 229.793,284.462 224.019,282.177 216.966 L 280.837 212.828 282.058 210.892 C 290.415 197.654,292.807 172.612,288.044 148.221 C 277.404 93.733,239.517 38.933,192.451 9.955 C 188.819 7.719,185.692 5.890,185.502 5.890 C 185.312 5.890,185.009 8.816,184.828 12.393 M221.196 53.084 C 229.056 56.760,231.934 67.696,228.911 82.398 C 224.300 104.820,215.615 116.444,200.302 120.687 L 196.860 121.641 196.038 117.948 C 193.318 105.724,198.329 75.946,205.854 59.618 C 209.135 52.496,214.789 50.088,221.196 53.084 M160.942 118.352 C 170.866 119.372,182.493 122.443,185.701 124.891 C 188.206 126.803,178.350 138.438,171.043 142.197 C 155.859 150.008,127.815 148.633,118.545 139.623 C 112.430 133.681,112.641 124.693,118.982 120.977 C 124.424 117.788,143.713 116.581,160.942 118.352 " stroke="none" fill="#000000" fill-rule="evenodd"></path></g></svg>