<svg id="svg" xmlns="http://www.w3.org/2000/svg" xmlns:xlink="http://www.w3.org/1999/xlink" width="400" height="299.87730061349697" viewBox="0, 0, 400,299.87730061349697"><g id="svgg"><path id="path0" d="M209.643 7.124 C 120.652 17.221,58.291 86.476,67.477 165.007 C 77.492 250.620,170.112 309.103,265.521 290.058 C 287.804 285.610,306.556 277.868,327.728 264.376 C 330.763 262.442,333.248 260.736,333.249 260.587 C 333.250 260.437,329.147 259.934,324.131 259.468 C 202.749 248.193,143.918 145.631,217.783 74.066 C 241.285 51.296,274.117 36.387,313.988 30.379 C 316.215 30.043,318.037 29.624,318.037 29.448 C 318.037 28.879,299.820 20.226,293.742 17.908 C 268.880 8.428,235.676 4.170,209.643 7.124 " stroke="none" fill="#000000" fill-rule="evenodd"></path></g></svg>