<svg id="svg" xmlns="http://www.w3.org/2000/svg" xmlns:xlink="http://www.w3.org/1999/xlink" width="400" height="299.87730061349697" viewBox="0, 0, 400,299.87730061349697"><g id="svgg"><path id="path0" d="M133.252 6.637 C 121.477 8.533,107.242 14.824,104.481 19.352 C 101.791 23.762,103.485 27.684,130.635 79.923 C 135.009 88.340,135.152 89.238,131.923 87.994 C 123.728 84.836,109.967 89.268,106.205 96.276 C 105.799 97.032,105.511 97.035,102.331 96.319 C 94.426 94.541,82.612 99.610,80.712 105.596 C 80.501 106.264,80.097 106.515,79.490 106.356 C 76.430 105.556,71.277 108.340,61.595 116.025 C 55.610 120.776,54.507 122.342,54.117 126.637 C 53.854 129.541,54.645 133.006,55.571 133.006 C 55.945 133.006,55.998 149.026,55.757 188.098 C 55.374 250.120,55.109 245.329,59.015 247.130 C 64.076 249.464,217.402 293.006,220.561 293.006 C 223.769 293.006,224.203 292.840,237.693 286.437 C 245.306 282.825,261.914 274.961,274.601 268.962 C 304.925 254.625,330.056 242.271,332.159 240.667 C 335.528 238.097,335.344 241.557,335.267 182.331 L 335.197 128.834 333.692 127.537 L 332.187 126.240 335.260 121.157 C 353.256 91.396,346.938 58.799,319.676 40.749 C 312.539 36.023,289.519 30.255,238.528 20.415 C 172.107 7.597,147.387 4.362,133.252 6.637 " stroke="none" fill="#000000" fill-rule="evenodd"></path></g></svg>