<svg id="svg" xmlns="http://www.w3.org/2000/svg" xmlns:xlink="http://www.w3.org/1999/xlink" width="400" height="299.87730061349697" viewBox="0, 0, 400,299.87730061349697"><g id="svgg"><path id="path0" d="M72.066 7.373 C 76.085 8.558,80.669 10.715,83.987 12.981 L 86.626 14.783 70.599 14.631 C 55.133 14.484,51.015 14.736,58.526 15.371 C 75.659 16.820,87.581 26.348,99.442 48.072 C 102.219 53.159,104.198 56.108,106.444 58.507 C 126.503 79.923,161.871 49.755,144.853 25.744 C 137.081 14.779,130.332 12.197,105.767 10.790 C 95.775 10.218,85.029 8.974,76.319 7.382 C 69.656 6.164,67.957 6.160,72.066 7.373 M152.613 53.284 C 148.803 58.222,140.482 65.152,135.801 67.285 C 135.074 67.616,134.479 68.093,134.479 68.345 C 134.479 68.905,147.135 85.480,159.681 101.350 C 164.803 107.828,169.896 114.276,171.000 115.678 L 173.006 118.227 176.766 118.255 C 186.938 118.329,194.531 112.597,197.492 102.610 C 199.105 97.169,199.206 97.377,190.348 87.822 C 181.788 78.590,155.093 50.552,154.861 50.552 C 154.784 50.552,153.772 51.782,152.613 53.284 M201.227 102.533 C 201.227 112.776,192.121 121.401,180.496 122.170 L 176.206 122.454 183.894 131.779 C 208.220 161.283,232.095 187.268,271.597 227.230 C 302.295 258.285,312.886 269.295,324.579 282.303 C 334.638 293.494,337.979 295.392,343.026 292.782 C 348.741 289.827,347.174 284.141,337.330 272.123 C 327.543 260.173,317.220 246.721,302.941 227.311 C 259.366 168.078,238.004 141.056,208.892 108.344 C 201.332 99.849,201.227 99.769,201.227 102.533 " stroke="none" fill="#000000" fill-rule="evenodd"></path></g></svg>