<svg id="svg" xmlns="http://www.w3.org/2000/svg" xmlns:xlink="http://www.w3.org/1999/xlink" width="400" height="299.87730061349697" viewBox="0, 0, 400,299.87730061349697"><g id="svgg"><path id="path0" d="M285.153 7.029 C 285.153 8.120,292.858 84.210,293.136 85.865 C 293.204 86.269,294.349 85.205,295.776 83.411 C 298.459 80.042,306.487 72.091,308.984 70.329 L 310.483 69.272 312.096 73.532 C 325.574 109.141,319.688 165.438,298.064 207.730 C 293.814 216.042,294.254 215.702,292.025 212.397 C 278.292 192.038,256.862 167.194,246.435 159.547 C 234.373 150.699,222.634 149.101,212.582 154.937 C 209.898 156.495,214.661 162.029,176.019 112.461 L 143.358 70.566 145.950 67.308 C 162.322 46.722,152.753 16.675,127.792 10.291 C 97.776 2.615,73.393 33.863,87.760 61.595 C 94.956 75.487,113.577 83.208,128.834 78.627 L 132.270 77.595 133.302 78.675 C 139.703 85.375,200.317 164.677,199.733 165.589 C 187.944 183.982,196.220 202.467,235.768 246.076 C 240.390 251.172,244.231 255.490,244.303 255.672 C 244.493 256.151,233.893 262.055,226.748 265.449 C 195.073 280.498,166.209 280.453,136.011 265.306 C 124.935 259.751,117.909 254.997,103.148 243.067 C 102.471 242.521,102.492 242.377,103.342 241.743 C 106.125 239.666,114.680 234.941,118.638 233.294 C 121.128 232.258,123.115 231.248,123.055 231.049 C 122.863 230.417,53.259 196.429,53.086 196.882 C 52.886 197.402,77.000 271.963,77.566 272.577 C 77.784 272.813,78.740 271.463,79.689 269.578 C 83.086 262.833,92.671 249.816,94.241 249.816 C 94.470 249.816,96.605 251.530,98.985 253.625 C 119.330 271.532,140.617 283.167,162.454 288.316 C 182.051 292.936,198.885 292.550,236.810 286.609 C 280.682 279.736,301.085 280.785,325.303 291.160 C 330.917 293.565,330.676 293.867,329.394 286.019 C 322.780 245.529,322.984 220.109,330.319 171.288 C 337.770 121.688,335.769 102.475,319.190 64.445 C 318.541 62.955,333.432 57.217,341.963 55.669 C 344.460 55.215,346.503 54.685,346.503 54.489 C 346.503 54.293,343.179 51.534,339.117 48.357 C 335.055 45.180,331.466 42.324,331.142 42.009 C 330.385 41.276,286.558 6.700,285.756 6.204 C 285.343 5.949,285.153 6.208,285.153 7.029 M125.751 21.588 C 143.148 26.961,148.458 48.634,135.546 61.567 C 123.145 73.987,101.950 68.995,96.207 52.300 C 89.920 34.027,107.352 15.905,125.751 21.588 " stroke="none" fill="#000000" fill-rule="evenodd"></path></g></svg>